<svg width="252" height="252" viewBox="0 0 252 252" fill="none" xmlns="http://www.w3.org/2000/svg">
<path d="M23.625 141.75H228.375C228.375 31.5 212.625 7.875 126 7.875C39.375 7.875 23.625 31.5 23.625 141.75Z" fill="#594640"/>
<path d="M219.712 117.731C218.925 122.062 218.137 126 216.956 128.362C214.594 132.3 210.263 134.662 210.263 134.662C210.263 134.662 211.444 126.394 211.05 114.975C206.325 46.4625 202.387 65.3625 126 65.3625C49.6125 65.3625 45.675 46.4625 40.95 114.581C40.5562 126 41.7375 134.662 41.7375 134.662C41.7375 134.662 37.4062 132.3 35.0437 128.362C33.8625 126 33.075 122.062 32.2875 117.731C25.2 115.762 15.75 117.337 15.75 137.812C15.75 150.412 20.475 161.044 36.6188 162.225C41.7375 202.387 65.3625 222.862 104.344 240.581C114.975 245.306 137.025 245.306 147.656 240.581C187.031 222.862 210.263 202.387 215.381 162.225C231.525 161.044 236.25 150.806 236.25 137.812C236.25 117.337 226.8 115.762 219.712 117.731Z" fill="#FFE1BD"/>
<path d="M161.438 192.544C161.438 205.931 143.719 212.625 126 212.625C108.281 212.625 90.5625 205.931 90.5625 192.544C90.5625 192.544 90.5625 189 94.1062 189H157.894C161.437 189 161.438 192.544 161.438 192.544" fill="#664E27"/>
<path d="M78.75 112.613C59.0625 112.613 51.1875 119.7 51.1875 126.788C51.1875 133.875 51.1875 144.113 77.175 144.113C102.375 144.113 106.312 140.963 106.312 130.331C106.312 123.244 98.4375 112.613 78.75 112.613Z" fill="#F5F5F5"/>
<path d="M80.7188 142.144C90.5045 142.144 98.4375 134.211 98.4375 124.425C98.4375 114.639 90.5045 106.706 80.7188 106.706C70.933 106.706 63 114.639 63 124.425C63 134.211 70.933 142.144 80.7188 142.144Z" fill="#664E27"/>
<path d="M86.625 124.425C86.625 127.575 83.8688 130.331 80.7188 130.331C77.5687 130.331 74.8125 127.575 74.8125 124.425C74.8125 121.275 77.5687 118.519 80.7188 118.519C83.8688 118.519 86.625 121.275 86.625 124.425Z" fill="#231F20"/>
<path d="M51.1875 126.394C51.1875 98.8313 106.312 98.8313 106.312 130.331C98.4375 106.706 59.0625 106.706 51.1875 126.394Z" fill="#664E27"/>
<path d="M173.25 112.613C192.938 112.613 200.812 119.7 200.812 126.788C200.812 133.875 200.813 144.113 174.825 144.113C149.625 144.113 145.688 140.963 145.688 130.331C145.688 123.244 153.562 112.613 173.25 112.613Z" fill="#F5F5F5"/>
<path d="M171.281 142.144C181.067 142.144 189 134.211 189 124.425C189 114.639 181.067 106.706 171.281 106.706C161.495 106.706 153.562 114.639 153.562 124.425C153.562 134.211 161.495 142.144 171.281 142.144Z" fill="#664E27"/>
<path d="M165.375 124.425C165.375 127.575 168.131 130.331 171.281 130.331C174.431 130.331 177.188 127.575 177.188 124.425C177.188 121.275 174.431 118.519 171.281 118.519C168.131 118.519 165.375 121.275 165.375 124.425Z" fill="#231F20"/>
<path d="M200.812 126.394C200.812 98.8313 145.688 98.8313 145.688 130.331C153.562 106.706 192.938 106.706 200.812 126.394Z" fill="#664E27"/>
<path d="M126 177.188C109.463 177.188 101.194 165.375 109.463 165.375H142.538C150.806 165.375 142.538 177.188 126 177.188Z" fill="#E6B796"/>
</svg>
