<svg width="71" height="71" viewBox="0 0 71 71" fill="none" xmlns="http://www.w3.org/2000/svg">
<path d="M35.5 4.4375C18.3463 4.4375 4.4375 18.3463 4.4375 35.5C4.4375 52.6537 18.3463 66.5625 35.5 66.5625C52.6537 66.5625 66.5625 52.6537 66.5625 35.5C66.5625 18.3463 52.6537 4.4375 35.5 4.4375ZM48.9165 25.3562L34.3144 45.6022C34.1103 45.8871 33.8412 46.1192 33.5295 46.2793C33.2178 46.4395 32.8724 46.523 32.522 46.523C32.1716 46.523 31.8262 46.4395 31.5145 46.2793C31.2028 46.1192 30.9338 45.8871 30.7297 45.6022L22.0835 33.621C21.82 33.2535 22.0835 32.7404 22.5342 32.7404H25.786C26.4933 32.7404 27.1658 33.0802 27.5818 33.6626L32.5186 40.513L43.4182 25.3978C43.8342 24.8223 44.4998 24.4756 45.214 24.4756H48.4658C48.9165 24.4756 49.18 24.9887 48.9165 25.3562Z" fill="#F8F8F8"/>
</svg>
