<svg width="27" height="36" viewBox="0 0 27 36" fill="none" xmlns="http://www.w3.org/2000/svg">
<path d="M25.8753 6.75H4.34935C4.06234 6.74593 3.77912 6.68376 3.51679 6.56722C3.25445 6.45069 3.01843 6.28222 2.82295 6.07197C2.62747 5.86171 2.47659 5.61403 2.37941 5.34386C2.28222 5.0737 2.24075 4.78664 2.25748 4.5C2.25608 3.92957 2.47133 3.37991 2.85968 2.9622C3.24803 2.5445 3.78049 2.28993 4.34935 2.25H25.8753C26.1736 2.25 26.4597 2.13147 26.6706 1.9205C26.8815 1.70952 27 1.42337 27 1.125C27 0.826631 26.8815 0.540483 26.6706 0.329505C26.4597 0.118526 26.1736 0 25.8753 0H4.34935C3.18373 0.0408336 2.07954 0.532906 1.26963 1.37243C0.459734 2.21196 0.00744567 3.33332 0.00816026 4.5C-0.00272009 4.68359 -0.00272009 4.86766 0.00816026 5.05125C-0.00267563 5.14092 -0.00267563 5.23158 0.00816026 5.32125V31.5C0.00744567 32.6667 0.459734 33.788 1.26963 34.6276C2.07954 35.4671 3.18373 35.9592 4.34935 36H25.8753C26.1736 36 26.4597 35.8815 26.6706 35.6705C26.8815 35.4595 27 35.1734 27 34.875V7.95375C27.0007 7.64768 26.8847 7.35286 26.6758 7.12924C26.4669 6.90563 26.1807 6.77002 25.8753 6.75Z" fill="#1C7A1F"/>
</svg>
