<svg width="272" height="272" viewBox="0 0 272 272" fill="none" xmlns="http://www.w3.org/2000/svg">
<path d="M214.699 125.936C209.746 86.9267 176.347 56.6667 136 56.6667C104.766 56.6667 77.6337 74.9134 65.2463 103.689C40.9023 110.976 22.667 133.96 22.667 158.667C22.667 188.779 46.3423 213.237 76.0243 215.005V215.333H203.887V215.299L204 215.333C229.002 215.333 249.334 195.001 249.334 170C249.32 159.84 245.901 149.978 239.622 141.99C233.344 134.002 224.568 128.349 214.699 125.936ZM90.667 136H124.667V102H147.334V136H181.334L136 192.667L90.667 136Z" fill="white"/>
</svg>
