<svg width="52" height="60" viewBox="0 0 52 60" fill="none" xmlns="http://www.w3.org/2000/svg">
<g clip-path="url(#clip0_61_99)" filter="url(#filter0_d_61_99)">
<path d="M36.5664 0.220971C36.8845 0.405371 37.1306 0.692188 37.2646 1.03457C37.3986 1.37695 37.4126 1.75465 37.3041 2.10597L31.4509 21.125H42.2506C42.568 21.1248 42.8785 21.2177 43.1437 21.392C43.409 21.5663 43.6173 21.8144 43.7432 22.1058C43.869 22.3972 43.9067 22.719 43.8517 23.0316C43.7967 23.3442 43.6514 23.6338 43.4336 23.8647L17.4336 51.4897C17.1821 51.7572 16.8473 51.9317 16.4839 51.9845C16.1205 52.0374 15.7499 51.9657 15.4325 51.781C15.1151 51.5963 14.8697 51.3095 14.7361 50.9674C14.6026 50.6253 14.5888 50.2481 14.6971 49.8972L20.5504 30.875H9.75065C9.43327 30.8751 9.1228 30.7823 8.85757 30.608C8.59233 30.4337 8.38395 30.1855 8.25813 29.8941C8.13232 29.6028 8.09459 29.2809 8.14959 28.9683C8.20459 28.6558 8.34993 28.3661 8.56765 28.1352L34.5676 0.510221C34.8189 0.243068 35.1532 0.0687688 35.516 0.0156636C35.8789 -0.0374416 36.2491 0.0337704 36.5664 0.217721V0.220971Z" fill="#1C7A1F"/>
</g>
<defs>
<filter id="filter0_d_61_99" x="-4" y="0" width="60" height="60" filterUnits="userSpaceOnUse" color-interpolation-filters="sRGB">
<feFlood flood-opacity="0" result="BackgroundImageFix"/>
<feColorMatrix in="SourceAlpha" type="matrix" values="0 0 0 0 0 0 0 0 0 0 0 0 0 0 0 0 0 0 127 0" result="hardAlpha"/>
<feOffset dy="4"/>
<feGaussianBlur stdDeviation="2"/>
<feComposite in2="hardAlpha" operator="out"/>
<feColorMatrix type="matrix" values="0 0 0 0 0 0 0 0 0 0 0 0 0 0 0 0 0 0 0.25 0"/>
<feBlend mode="normal" in2="BackgroundImageFix" result="effect1_dropShadow_61_99"/>
<feBlend mode="normal" in="SourceGraphic" in2="effect1_dropShadow_61_99" result="shape"/>
</filter>
<clipPath id="clip0_61_99">
<rect width="52" height="52" fill="white"/>
</clipPath>
</defs>
</svg>
