<svg width="117" height="157" viewBox="0 0 117 157" fill="none" xmlns="http://www.w3.org/2000/svg">
<g clip-path="url(#clip0_70_130)">
<path d="M19.5 0C8.74453 0 0 8.80059 0 19.625V137.375C0 148.199 8.74453 157 19.5 157H97.5C108.255 157 117 148.199 117 137.375V19.625C117 8.80059 108.255 0 97.5 0H19.5ZM29.25 19.625H87.75C93.143 19.625 97.5 24.01 97.5 29.4375V39.25C97.5 44.6775 93.143 49.0625 87.75 49.0625H29.25C23.857 49.0625 19.5 44.6775 19.5 39.25V29.4375C19.5 24.01 23.857 19.625 29.25 19.625ZM19.5 68.6875C19.5 63.26 23.857 58.875 29.25 58.875C34.643 58.875 39 63.26 39 68.6875C39 74.115 34.643 78.5 29.25 78.5C23.857 78.5 19.5 74.115 19.5 68.6875ZM29.25 88.3125C34.643 88.3125 39 92.6975 39 98.125C39 103.553 34.643 107.938 29.25 107.938C23.857 107.938 19.5 103.553 19.5 98.125C19.5 92.6975 23.857 88.3125 29.25 88.3125ZM19.5 127.562C19.5 122.135 23.857 117.75 29.25 117.75H58.5C63.893 117.75 68.25 122.135 68.25 127.562C68.25 132.99 63.893 137.375 58.5 137.375H29.25C23.857 137.375 19.5 132.99 19.5 127.562ZM58.5 58.875C63.893 58.875 68.25 63.26 68.25 68.6875C68.25 74.115 63.893 78.5 58.5 78.5C53.107 78.5 48.75 74.115 48.75 68.6875C48.75 63.26 53.107 58.875 58.5 58.875ZM48.75 98.125C48.75 92.6975 53.107 88.3125 58.5 88.3125C63.893 88.3125 68.25 92.6975 68.25 98.125C68.25 103.553 63.893 107.938 58.5 107.938C53.107 107.938 48.75 103.553 48.75 98.125ZM87.75 58.875C93.143 58.875 97.5 63.26 97.5 68.6875C97.5 74.115 93.143 78.5 87.75 78.5C82.357 78.5 78 74.115 78 68.6875C78 63.26 82.357 58.875 87.75 58.875ZM78 98.125C78 92.6975 82.357 88.3125 87.75 88.3125C93.143 88.3125 97.5 92.6975 97.5 98.125C97.5 103.553 93.143 107.938 87.75 107.938C82.357 107.938 78 103.553 78 98.125ZM87.75 117.75C93.143 117.75 97.5 122.135 97.5 127.562C97.5 132.99 93.143 137.375 87.75 137.375C82.357 137.375 78 132.99 78 127.562C78 122.135 82.357 117.75 87.75 117.75Z" fill="white"/>
</g>
<defs>
<clipPath id="clip0_70_130">
<rect width="117" height="157" fill="white"/>
</clipPath>
</defs>
</svg>
